<?xml version="1.0" encoding="UTF-8"?>
<!-- Generator: Adobe Illustrator 24.3.0, SVG Export Plug-In . SVG Version: 6.00 Build 0)  -->
<svg xmlns="http://www.w3.org/2000/svg" xmlns:xlink="http://www.w3.org/1999/xlink" version="1.1" id="Capa_1" x="0px" y="0px" viewBox="0 0 512.007 512.007" style="enable-background:new 0 0 512.007 512.007;" xml:space="preserve" width="512" height="512">
<g>
	<g id="object_44_">
		<g>
			<path d="M437.022,74.989C364.498,2.53,255.77-19.737,160.601,18.38c-9.065,3.618-13.481,13.9-9.863,22.964     c3.618,9.065,13.9,13.481,22.964,9.863c0.026-0.01,0.051-0.021,0.077-0.031c26.138-10.501,54.054-15.874,82.223-15.824     c121.669,0,220.655,98.986,220.655,220.655c-0.179,78.545-41.919,151.127-109.717,190.785     c-8.453,4.879-11.351,15.687-6.472,24.14c4.879,8.453,15.687,11.351,24.14,6.472c0.044-0.025,0.087-0.05,0.13-0.076     c78.821-45.833,127.301-130.144,127.264-221.321C512.188,188.075,485.189,122.892,437.022,74.989z"/>
		</g>
		<g>
			<path d="M37.763,158.474c8.58,4.639,19.296,1.444,23.934-7.136c0.003-0.005,0.006-0.01,0.008-0.016     c15.803-29.151,37.911-54.409,64.713-73.934c7.917-5.708,9.708-16.753,4-24.671c-5.708-7.917-16.753-9.708-24.671-4     c-0.037,0.026-0.073,0.053-0.109,0.079c-31.076,22.64-56.71,51.928-75.033,85.73C25.969,143.116,29.173,153.837,37.763,158.474     C37.762,158.474,37.762,158.474,37.763,158.474z"/>
		</g>
		<g>
			<path d="M43.721,316.439c-9.875-34.975-11.034-71.836-3.376-107.361c2.016-9.55-4.091-18.926-13.64-20.942     c-9.481-2.002-18.805,4.004-20.904,13.463c-8.885,41.195-7.539,83.94,3.92,124.494c2.667,9.389,12.44,14.838,21.829,12.171     c9.389-2.667,14.838-12.44,12.171-21.829l0,0V316.439z"/>
		</g>
		<g>
			<path d="M133.296,439.426c-28.652-19.25-52.438-44.897-69.479-74.916c-4.699-8.555-15.443-11.681-23.998-6.982     c-8.555,4.699-11.681,15.443-6.982,23.998c0.072,0.131,0.146,0.261,0.221,0.391c19.757,34.807,47.333,64.546,80.554,86.868     c8.107,5.435,19.085,3.268,24.52-4.839c5.435-8.107,3.268-19.085-4.839-24.52L133.296,439.426z"/>
		</g>
		<g>
			<path d="M320.705,467.028c-48.253,14.707-100.078,12.524-146.923-6.189c-9.057-3.639-19.349,0.753-22.988,9.809     c-3.639,9.057,0.753,19.349,9.809,22.988c54.343,21.724,114.471,24.26,170.451,7.189c9.333-2.858,14.582-12.74,11.724-22.073     C339.92,469.419,330.038,464.17,320.705,467.028L320.705,467.028z"/>
		</g>
		<g>
			<path d="M256.003,117.585c-9.76,0-17.673,7.912-17.673,17.673l0,0v103.078H135.253c-9.76,0-17.673,7.912-17.673,17.673     c0,9.76,7.912,17.673,17.673,17.673H238.33v103.078c0,9.76,7.912,17.673,17.673,17.673c9.76,0,17.673-7.912,17.673-17.673V273.68     h103.078c9.76,0,17.673-7.912,17.673-17.673c0-9.76-7.912-17.673-17.673-17.673H273.676V135.257     C273.676,125.497,265.763,117.585,256.003,117.585L256.003,117.585z"/>
		</g>
	</g>
</g>















</svg>
